<svg xmlns="http://www.w3.org/2000/svg" width="20" height="21" viewBox="0 0 20 21">
    <g fill="none" fill-rule="evenodd">
        <path d="M-1.779-1h24.04v24H-1.78z"/>
        <path fill="#4d5475" fill-rule="nonzero" d="M5.192 7.312l1.415 1.414-3.722 3.722a3.004 3.004 0 0 0-.54 3.514c.244.469.519.852.82 1.154.303.303.687.577 1.155.822a3.004 3.004 0 0 0 3.515-.54l3.721-3.722 1.415 1.414-3.722 3.722a5.007 5.007 0 0 1-5.858.9 6.66 6.66 0 0 1-1.642-1.18 6.66 6.66 0 0 1-1.179-1.64 5.007 5.007 0 0 1 .9-5.859l3.722-3.721zm9.639 5.918l-1.414-1.415 3.721-3.721a3.004 3.004 0 0 0 .54-3.515 4.683 4.683 0 0 0-.82-1.154 4.683 4.683 0 0 0-1.155-.821 3.004 3.004 0 0 0-3.514.54L8.467 6.866 7.053 5.45l3.721-3.721a5.007 5.007 0 0 1 5.858-.9 6.66 6.66 0 0 1 1.642 1.178c.452.452.844 1 1.18 1.642a5.007 5.007 0 0 1-.901 5.858L14.83 13.23zm-.877-8.214l1.416 1.417-9.196 9.197-1.417-1.417 9.197-9.197z"/>
    </g>
</svg>
