<svg xmlns="http://www.w3.org/2000/svg" width="22" height="13" viewBox="0 0 22 13">
    <path fill="#505050" fill-rule="evenodd" d="M4.362 2.038c0-.52.416-.942.943-.942h15.661a.94.94 0 0 1 .944.942c0 .52-.417.942-.944.942H5.306a.94.94 0 0 1-.944-.942zm0 4.672c0-.52.416-.942.943-.942h15.661a.94.94 0 0 1 .944.942c0 .52-.417.942-.944.942H5.306a.94.94 0 0 1-.944-.942zm0 4.671c0-.52.416-.942.943-.942h15.661a.94.94 0 0 1 .944.942c0 .52-.417.943-.944.943H5.306a.94.94 0 0 1-.944-.943zM1.034 3.565V1.412H.526a.094.094 0 0 1-.095-.091v-.302C.43 1 .447.962.463.947l.772-.545h.486c.053 0 .095.043.095.09v3.073c0 .048-.042.091-.095.091h-.587c-.058 0-.1-.043-.1-.09zM.243 8.037v-.094a44.039 44.039 0 0 0 1.38-1.731.652.652 0 0 0 .136-.359c0-.179-.167-.34-.459-.34-.213 0-.406.138-.505.237a.108.108 0 0 1-.146 0l-.318-.293a.082.082 0 0 1-.005-.122s.422-.463 1.042-.463c.745 0 1.183.43 1.183.953 0 .25-.078.392-.203.613-.167.27-.594.774-.84 1.085h.918c.052 0 .1.043.1.09v.424c0 .047-.048.09-.1.09H.342c-.058 0-.1-.043-.1-.09zm.02 4.301c-.03-.033-.025-.084.005-.116l.324-.293a.102.102 0 0 1 .129-.01s.318.214.565.214c.22 0 .446-.167.446-.372 0-.204-.23-.376-.61-.376H.833c-.052 0-.098-.042-.098-.088v-.386c0-.052.046-.089.098-.089h.287c.36 0 .55-.158.55-.358 0-.2-.19-.348-.411-.348a.609.609 0 0 0-.447.186c-.036.037-.098.037-.139.004l-.313-.279c-.041-.032-.036-.088 0-.12 0 0 .421-.41.981-.41.596 0 1.11.33 1.11.851 0 .358-.298.623-.53.72v.015c.242.093.622.38.622.78 0 .507-.488.889-1.197.889-.647 0-.976-.289-1.084-.414z"/>
</svg>
