<svg xmlns="http://www.w3.org/2000/svg" width="18" height="11" viewBox="0 0 18 11">
    <path fill="#505050" fill-rule="evenodd" d="M3.603 1.737c0-.425.354-.769.77-.769h12.774c.425 0 .77.341.77.769a.775.775 0 0 1-.77.768H4.372a.767.767 0 0 1-.77-.768zm0 3.81c0-.424.354-.768.77-.768h12.774c.425 0 .77.341.77.768a.775.775 0 0 1-.77.769H4.372a.767.767 0 0 1-.77-.769zm0 3.811c0-.424.354-.768.77-.768h12.774c.425 0 .77.34.77.768a.775.775 0 0 1-.77.769H4.372a.767.767 0 0 1-.77-.769zM.888 2.982V1.225H.474a.077.077 0 0 1-.078-.074V.905C.396.89.41.86.422.847l.63-.445h.397c.043 0 .077.035.077.074v2.506a.077.077 0 0 1-.077.075h-.48c-.047 0-.081-.036-.081-.075zM.243 6.63v-.077c.246-.292.875-1.065 1.126-1.412a.532.532 0 0 0 .11-.292c0-.146-.135-.277-.373-.277-.175 0-.332.111-.413.192a.088.088 0 0 1-.119 0l-.26-.238a.067.067 0 0 1-.003-.1s.344-.377.85-.377c.608 0 .965.35.965.777 0 .204-.064.32-.166.5-.136.22-.485.63-.684.885h.748c.042 0 .08.034.08.073v.346c0 .039-.038.073-.08.073h-1.7c-.047 0-.081-.034-.081-.073zm.017 3.508c-.026-.026-.021-.068.004-.094l.264-.24a.084.084 0 0 1 .104-.007s.26.174.461.174c.18 0 .365-.136.365-.303 0-.167-.189-.307-.499-.307H.725c-.042 0-.08-.034-.08-.072v-.315c0-.042.038-.072.08-.072h.234c.294 0 .449-.129.449-.292 0-.163-.155-.284-.336-.284a.497.497 0 0 0-.364.151c-.03.03-.08.03-.113.004l-.256-.228c-.033-.026-.03-.072 0-.098 0 0 .344-.334.8-.334.486 0 .905.27.905.694 0 .292-.243.508-.431.588v.011c.197.076.507.311.507.638 0 .413-.398.724-.976.724-.528 0-.796-.235-.884-.338z"/>
</svg>
