<svg xmlns="http://www.w3.org/2000/svg" width="25" height="15" viewBox="0 0 25 15">
    <g fill="none" fill-rule="evenodd">
        <path d="M.127-5h24.039v24H.127z"/>
        <path fill="#FD8C2E" d="M.701 14a.334.334 0 0 1-.276-.12.348.348 0 0 1-.06-.3l.076-.18L7.833.5c.2-.333.474-.5.821-.5h2.204c.347 0 .554.167.62.5l2.224 12.9.004.18a.495.495 0 0 1-.19.3.509.509 0 0 1-.314.12h-1.783c-.28 0-.449-.127-.505-.38l-.437-2.42h-5.93l-1.406 2.42c-.157.253-.376.38-.657.38H.701zm5.012-5.12h4.528L9.21 2.72 5.713 8.88zm11.161 5.32c-.68 0-1.278-.137-1.79-.41-.513-.273-.887-.643-1.12-1.11-.234-.467-.295-.98-.183-1.54.182-.907.696-1.64 1.543-2.2.846-.56 1.93-.94 3.253-1.14l2.825-.4.084-.42c.115-.573.055-1.007-.18-1.3-.236-.293-.674-.44-1.315-.44-.44 0-.81.08-1.11.24-.299.16-.548.323-.749.49l-.396.33c-.086.16-.202.24-.349.24h-1.562a.363.363 0 0 1-.287-.12c-.07-.08-.093-.187-.066-.32.08-.333.32-.71.717-1.13.398-.42.956-.787 1.673-1.1.717-.313 1.556-.47 2.518-.47 1.576 0 2.654.353 3.233 1.06.58.707.755 1.633.525 2.78l-1.258 6.28a.602.602 0 0 1-.198.34.552.552 0 0 1-.379.14H20.64a.378.378 0 0 1-.312-.14.394.394 0 0 1-.072-.34l.156-.78c-.38.427-.863.777-1.452 1.05-.59.273-1.284.41-2.086.41zm1.066-1.92c.735 0 1.384-.24 1.947-.72.564-.48.936-1.173 1.118-2.08l.08-.4-2.067.32c-1.584.24-2.455.753-2.612 1.54-.086.427.025.757.332.99.307.233.708.35 1.202.35z"/>
    </g>
</svg>
