<svg xmlns="http://www.w3.org/2000/svg" width="21" height="15" viewBox="0 0 21 15">
    <path fill="#505050" fill-rule="evenodd" d="M.302 14.147h2.271c.419 0 .678-.219.797-.478l.777-1.594h4.404l.339 1.574c.08.399.279.498.637.498h2.252a.393.393 0 0 0 .379-.518L8.41.22C8.371.1 8.272 0 8.133 0h-.18c-.16 0-.259.1-.339.22L.063 13.63c-.14.258-.04.517.239.517zm5.26-4.782l1.594-3.328h.02l.618 3.328H5.562zm15.431-2.81c.04-.219-.1-.378-.279-.378h-.936c-.18 0-.3.08-.379.24l-.398.816s-.758-1.255-2.372-1.255c-2.171 0-4.064 2.052-4.064 4.682 0 2.033.956 3.687 2.81 3.687 1.274 0 2.29-.758 2.69-1.196l.119.697c.02.18.14.3.299.3h1.036c.179 0 .358-.18.398-.38l1.076-7.212zm-4.682 5.201c-.618 0-1.056-.598-1.056-1.355 0-1.016.777-1.813 1.514-1.813.638 0 1.116.618 1.116 1.395 0 1.016-.678 1.773-1.574 1.773z"/>
</svg>
