<svg xmlns="http://www.w3.org/2000/svg" width="19" height="11" viewBox="0 0 19 11">
    <path fill="#505050" fill-rule="evenodd" d="M2.133 2.948c-.776 0-1.406-.57-1.406-1.273S1.357.402 2.133.402c.777 0 1.406.57 1.406 1.273s-.63 1.273-1.406 1.273zm0 3.635c-.776 0-1.406-.57-1.406-1.273s.63-1.272 1.406-1.272c.777 0 1.406.57 1.406 1.272 0 .703-.63 1.273-1.406 1.273zm2.611-4.72a.74.74 0 0 1 .734-.734h12.19c.405 0 .734.325.734.733a.74.74 0 0 1-.735.733H5.478a.732.732 0 0 1-.734-.733zm0 3.635a.74.74 0 0 1 .734-.733h12.19c.405 0 .734.325.734.733a.74.74 0 0 1-.735.733H5.478a.732.732 0 0 1-.734-.733zm-2.61 4.72c-.777 0-1.407-.57-1.407-1.272 0-.703.63-1.273 1.406-1.273.777 0 1.406.57 1.406 1.273s-.63 1.272-1.406 1.272zm2.61-1.084a.74.74 0 0 1 .734-.733h12.19c.405 0 .734.325.734.733a.74.74 0 0 1-.735.733H5.478a.732.732 0 0 1-.734-.733z"/>
</svg>
