<svg xmlns="http://www.w3.org/2000/svg" width="23" height="13" viewBox="0 0 23 13">
    <path fill="#505050" fill-rule="evenodd" d="M2.452 3.525c-.953 0-1.725-.7-1.725-1.562 0-.862.772-1.561 1.725-1.561.952 0 1.724.699 1.724 1.561 0 .863-.772 1.562-1.724 1.562zm0 4.457c-.953 0-1.725-.698-1.725-1.56 0-.862.772-1.561 1.725-1.561.952 0 1.724.699 1.724 1.56 0 .863-.772 1.561-1.724 1.561zm3.202-5.79c0-.496.397-.898.9-.898h14.95c.497 0 .9.399.9.899 0 .497-.397.9-.9.9H6.554c-.497 0-.9-.4-.9-.9zm0 4.46c0-.497.397-.9.9-.9h14.95c.497 0 .9.4.9.9 0 .497-.397.9-.9.9H6.554c-.497 0-.9-.4-.9-.9zm-3.202 5.79c-.953 0-1.725-.699-1.725-1.561s.772-1.56 1.725-1.56c.952 0 1.724.698 1.724 1.56 0 .862-.772 1.56-1.724 1.56zm3.202-1.33c0-.497.397-.9.9-.9h14.95c.497 0 .9.4.9.9 0 .496-.397.899-.9.899H6.554c-.497 0-.9-.4-.9-.9z"/>
</svg>
