<svg xmlns="http://www.w3.org/2000/svg" xmlns:xlink="http://www.w3.org/1999/xlink" width="34" height="34" viewBox="0 0 34 34">
    <defs>
        <path id="a" d="M19.698 16.5h6a1.5 1.5 0 0 1 0 3h-6v6a1.5 1.5 0 0 1-3 0v-6h-6a1.5 1.5 0 1 1 0-3h6v-6a1.5 1.5 0 0 1 3 0v6zM18 34.5C8.887 34.5 1.5 27.113 1.5 18S8.887 1.5 18 1.5 34.5 8.887 34.5 18 27.113 34.5 18 34.5zm0-3c7.456 0 13.5-6.044 13.5-13.5S25.456 4.5 18 4.5 4.5 10.544 4.5 18 10.544 31.5 18 31.5z"/>
    </defs>
    <g fill="none" fill-rule="evenodd" transform="translate(-1 -1)">
        <path d="M0 0h36v36H0z"/>
        <use fill="#FD8C2E" fill-rule="nonzero" xlink:href="#a"/>
    </g>
</svg>
