<?xml version="1.0" encoding="UTF-8"?>
<svg width="91px" height="100px" viewBox="0 0 91 100" version="1.1" xmlns="http://www.w3.org/2000/svg" xmlns:xlink="http://www.w3.org/1999/xlink">
    <!-- Generator: Sketch 51.2 (57519) - http://www.bohemiancoding.com/sketch -->
    <title>ic_doc</title>
    <desc>Created with Sketch.</desc>
    <defs></defs>
    <g id="Icon-set" stroke="none" stroke-width="1" fill="none" fill-rule="evenodd">
        <g id="Proofn-File-Icon-v.1.0.0" transform="translate(-85.000000, -694.000000)">
            <g id="ic_doc" transform="translate(81.000000, 694.000000)">
                <g>
                    <rect id="base" x="0" y="0" width="100" height="100"></rect>
                    <path d="M20.3636364,-3.05872748e-14 L56.6515732,-3.87568765e-15 L94.9090909,41.8515744 L94.9090909,83.6363636 C94.9090909,92.6737505 87.5828414,100 78.5454545,100 L20.3636364,100 C11.3262495,100 4,92.6737505 4,83.6363636 L4,16.3636364 C4,7.32624955 11.3262495,-3.74197094e-14 20.3636364,-3.90798505e-14 Z" id="Rectangle" fill="#4A90E2"></path>
                    <path d="M94.9371797,41.8181818 L74.9090909,41.8181818 C64.86755,41.8181818 56.7272727,33.6779045 56.7272727,23.6363636 L56.7272727,0.0763881954 L94.9371797,41.8181818 Z" id="Rectangle" fill="#6AAEFC"></path>
                    <path d="M17.8763636,86.0909091 C17.6824233,86.0909091 17.5175764,86.023031 17.3818182,85.8872727 C17.2460599,85.7515145 17.1781818,85.5866676 17.1781818,85.3927273 L17.1781818,66.4545455 C17.1781818,66.2412111 17.2412115,66.0666673 17.3672727,65.9309091 C17.493334,65.7951508 17.6630292,65.7272727 17.8763636,65.7272727 L24.9745455,65.7272727 C30.6957862,65.7272727 33.6145449,68.3648221 33.7309091,73.64 C33.7696972,74.7648541 33.7890909,75.5212102 33.7890909,75.9090909 C33.7890909,76.2775776 33.7696972,77.0242368 33.7309091,78.1490909 C33.6533329,80.864256 32.9212191,82.8666602 31.5345455,84.1563636 C30.1478719,85.4460671 28.0097114,86.0909091 25.12,86.0909091 L17.8763636,86.0909091 Z M24.9745455,82.7163636 C26.5842505,82.7163636 27.7478752,82.3575793 28.4654545,81.64 C29.1830339,80.9224207 29.5612119,79.7297053 29.6,78.0618182 C29.6387881,76.898176 29.6581818,76.1709105 29.6581818,75.88 C29.6581818,75.5696954 29.6387881,74.8521268 29.6,73.7272727 C29.5612119,72.1369617 29.1636401,70.9684886 28.4072727,70.2218182 C27.6509053,69.4751478 26.45819,69.1018182 24.8290909,69.1018182 L21.28,69.1018182 L21.28,82.7163636 L24.9745455,82.7163636 Z M44.0290909,86.3818182 C41.3721079,86.3818182 39.306674,85.712734 37.8327273,84.3745455 C36.3587805,83.0363569 35.5830307,81.048498 35.5054545,78.4109091 C35.4860605,77.848482 35.4763636,77.0242479 35.4763636,75.9381818 C35.4763636,74.8327217 35.4860605,73.9987907 35.5054545,73.4363636 C35.5830307,70.8569568 36.3781742,68.8787948 37.8909091,67.5018182 C39.4036439,66.1248416 41.4496841,65.4363636 44.0290909,65.4363636 C46.5891037,65.4363636 48.6302954,66.1248416 50.1527273,67.5018182 C51.6751591,68.8787948 52.4751511,70.8569568 52.5527273,73.4363636 C52.5915153,74.5612177 52.6109091,75.3951488 52.6109091,75.9381818 C52.6109091,76.4618208 52.5915153,77.286055 52.5527273,78.4109091 C52.4751511,81.048498 51.6945529,83.0363569 50.2109091,84.3745455 C48.7272653,85.712734 46.6666798,86.3818182 44.0290909,86.3818182 Z M44.0290909,83.0072727 C45.3284913,83.0072727 46.3563598,82.6193978 47.1127273,81.8436364 C47.8690947,81.0678749 48.2763633,79.8751596 48.3345454,78.2654545 C48.3733335,77.1018124 48.3927273,76.3163657 48.3927273,75.9090909 C48.3927273,75.4630281 48.3733335,74.6775814 48.3345454,73.5527273 C48.2763633,71.9624163 47.8593978,70.7745494 47.0836363,69.9890909 C46.3078749,69.2036324 45.2897033,68.8109091 44.0290909,68.8109091 C42.7490845,68.8109091 41.721216,69.2036324 40.9454545,69.9890909 C40.1696931,70.7745494 39.7624244,71.9624163 39.7236363,73.5527273 C39.7042423,74.1151543 39.6945454,74.900601 39.6945454,75.9090909 C39.6945454,76.8981868 39.7042423,77.6836335 39.7236363,78.2654545 C39.7624244,79.8557655 40.1648446,81.0436324 40.9309091,81.8290909 C41.6969735,82.6145494 42.7296905,83.0072727 44.0290909,83.0072727 Z M62.7927272,86.3818182 C60.1163502,86.3818182 58.0460679,85.6981887 56.5818181,84.3309091 C55.1175684,82.9636295 54.3369701,81.0194065 54.24,78.4981818 C54.2206059,77.9745428 54.210909,77.121218 54.210909,75.9381818 C54.210909,74.7357516 54.2206059,73.863033 54.24,73.32 C54.3369701,70.8375633 55.1224168,68.9030372 56.5963636,67.5163636 C58.0703104,66.12969 60.1357442,65.4363636 62.7927272,65.4363636 C64.5187965,65.4363636 66.0218117,65.7321183 67.3018181,66.3236364 C68.5818245,66.9151545 69.575754,67.7248433 70.2836363,68.7527273 C70.9915186,69.7806112 71.3648482,70.9345391 71.4036363,72.2145455 L71.4036363,72.2727273 C71.4036363,72.4278796 71.3406066,72.5587873 71.2145454,72.6654545 C71.0884842,72.7721217 70.9478795,72.8254545 70.7927272,72.8254545 L67.970909,72.8254545 C67.7381806,72.8254545 67.5636369,72.7721217 67.4472727,72.6654545 C67.3309085,72.5587873 67.2339397,72.3696983 67.1563636,72.0981818 C66.865453,70.8957516 66.3612157,70.0472752 65.6436363,69.5527273 C64.926057,69.0581793 63.9757634,68.8109091 62.7927272,68.8109091 C60.01938,68.8109091 58.574546,70.3624087 58.4581818,73.4654545 C58.4387877,73.9890935 58.4290909,74.793934 58.4290909,75.88 C58.4290909,76.966066 58.4387877,77.7903002 58.4581818,78.3527273 C58.574546,81.4557731 60.01938,83.0072727 62.7927272,83.0072727 C63.9563694,83.0072727 64.9018145,82.7600025 65.6290909,82.2654545 C66.3563672,81.7709066 66.865453,80.9224303 67.1563636,79.72 C67.2339397,79.4484835 67.3309085,79.2593945 67.4472727,79.1527273 C67.5636369,79.0460601 67.7381806,78.9927273 67.970909,78.9927273 L70.7927272,78.9927273 C70.9672736,78.9927273 71.1175751,79.0509085 71.2436363,79.1672727 C71.3696976,79.2836369 71.4230304,79.42909 71.4036363,79.6036364 C71.3648482,80.8836428 70.9915186,82.0375706 70.2836363,83.0654545 C69.575754,84.0933385 68.5818245,84.9030273 67.3018181,85.4945455 C66.0218117,86.0860636 64.5187965,86.3818182 62.7927272,86.3818182 Z" id="DOC" fill="#FFFFFF"></path>
                </g>
            </g>
        </g>
    </g>
</svg>