<?xml version="1.0" encoding="UTF-8"?>
<svg width="91px" height="100px" viewBox="0 0 91 100" version="1.1" xmlns="http://www.w3.org/2000/svg" xmlns:xlink="http://www.w3.org/1999/xlink">
    <!-- Generator: Sketch 51.2 (57519) - http://www.bohemiancoding.com/sketch -->
    <title>ic_flv</title>
    <desc>Created with Sketch.</desc>
    <defs></defs>
    <g id="Icon-set" stroke="none" stroke-width="1" fill="none" fill-rule="evenodd">
        <g id="Proofn-File-Icon-v.1.0.0" transform="translate(-645.000000, -1477.000000)">
            <g id="ic_flv" transform="translate(641.000000, 1477.000000)">
                <g>
                    <rect id="base" x="0" y="0" width="100" height="100"></rect>
                    <path d="M20.3636364,-3.05872748e-14 L56.6515732,-3.87568765e-15 L94.9090909,41.8515744 L94.9090909,83.6363636 C94.9090909,92.6737505 87.5828414,100 78.5454545,100 L20.3636364,100 C11.3262495,100 4,92.6737505 4,83.6363636 L4,16.3636364 C4,7.32624955 11.3262495,-3.74197094e-14 20.3636364,-3.90798505e-14 Z" id="Rectangle" fill="#55BEEE"></path>
                    <path d="M94.9371797,41.8181818 L74.9090909,41.8181818 C64.86755,41.8181818 56.7272727,33.6779045 56.7272727,23.6363636 L56.7272727,0.0763881954 L94.9371797,41.8181818 Z" id="Rectangle" fill="#86D9FE"></path>
                    <path d="M17.8763636,86.0909091 C17.6824233,86.0909091 17.5175764,86.023031 17.3818182,85.8872727 C17.2460599,85.7515145 17.1781818,85.5866676 17.1781818,85.3927273 L17.1781818,66.4545455 C17.1781818,66.2412111 17.2412115,66.0666673 17.3672727,65.9309091 C17.493334,65.7951508 17.6630292,65.7272727 17.8763636,65.7272727 L30.5309091,65.7272727 C30.7442435,65.7272727 30.9187872,65.7951508 31.0545455,65.9309091 C31.1903037,66.0666673 31.2581818,66.2412111 31.2581818,66.4545455 L31.2581818,68.5490909 C31.2581818,68.7430313 31.1903037,68.9078781 31.0545455,69.0436364 C30.9187872,69.1793946 30.7442435,69.2472727 30.5309091,69.2472727 L21.2218182,69.2472727 L21.2218182,74.7163636 L29.9490909,74.7163636 C30.1624253,74.7163636 30.336969,74.7842417 30.4727273,74.92 C30.6084855,75.0557583 30.6763636,75.2206051 30.6763636,75.4145455 L30.6763636,77.5090909 C30.6763636,77.7030313 30.6084855,77.8678781 30.4727273,78.0036364 C30.336969,78.1393946 30.1624253,78.2072727 29.9490909,78.2072727 L21.2218182,78.2072727 L21.2218182,85.3927273 C21.2218182,85.5866676 21.1539401,85.7515145 21.0181818,85.8872727 C20.8824236,86.023031 20.7078799,86.0909091 20.4945455,86.0909091 L17.8763636,86.0909091 Z M33.9345454,86.0909091 C33.7406051,86.0909091 33.5757582,86.023031 33.44,85.8872727 C33.3042417,85.7515145 33.2363636,85.5866676 33.2363636,85.3927273 L33.2363636,66.4254545 C33.2363636,66.2121201 33.3042417,66.0424249 33.44,65.9163636 C33.5757582,65.7903024 33.7406051,65.7272727 33.9345454,65.7272727 L36.6690909,65.7272727 C36.8824253,65.7272727 37.0521206,65.7903024 37.1781818,65.9163636 C37.304243,66.0424249 37.3672727,66.2121201 37.3672727,66.4254545 L37.3672727,82.6 L46.5890909,82.6 C46.8024253,82.6 46.976969,82.6678781 47.1127273,82.8036364 C47.2484855,82.9393946 47.3163636,83.1042415 47.3163636,83.2981818 L47.3163636,85.3927273 C47.3163636,85.5866676 47.2484855,85.7515145 47.1127273,85.8872727 C46.976969,86.023031 46.8024253,86.0909091 46.5890909,86.0909091 L33.9345454,86.0909091 Z M51.9418181,86.0909091 C51.359997,86.0909091 50.981819,85.8193967 50.8072727,85.2763636 L44.5818181,66.6 C44.5624241,66.5418179 44.5527272,66.454546 44.5527272,66.3381818 C44.5527272,66.1636355 44.6109085,66.0181824 44.7272727,65.9018182 C44.8436369,65.785454 44.98909,65.7272727 45.1636363,65.7272727 L47.7527272,65.7272727 C48.0048497,65.7272727 48.208484,65.7951508 48.3636363,65.9309091 C48.5187886,66.0666673 48.6254542,66.2121204 48.6836363,66.3672727 L53.5418181,81.2618182 L58.4290909,66.3672727 C58.4678789,66.2121204 58.5648477,66.0666673 58.72,65.9309091 C58.8751522,65.7951508 59.0787866,65.7272727 59.330909,65.7272727 L61.9490909,65.7272727 C62.1042432,65.7272727 62.2448478,65.785454 62.370909,65.9018182 C62.4969703,66.0181824 62.56,66.1636355 62.56,66.3381818 L62.5018181,66.6 L56.3054545,85.2763636 C56.1115141,85.8193967 55.7333361,86.0909091 55.170909,86.0909091 L51.9418181,86.0909091 Z" id="FLV" fill="#FFFFFF"></path>
                </g>
            </g>
        </g>
    </g>
</svg>