<?xml version="1.0" encoding="UTF-8"?>
<svg width="91px" height="100px" viewBox="0 0 91 100" version="1.1" xmlns="http://www.w3.org/2000/svg" xmlns:xlink="http://www.w3.org/1999/xlink">
    <!-- Generator: Sketch 51.2 (57519) - http://www.bohemiancoding.com/sketch -->
    <title>ic_gif</title>
    <desc>Created with Sketch.</desc>
    <defs></defs>
    <g id="Icon-set" stroke="none" stroke-width="1" fill="none" fill-rule="evenodd">
        <g id="Proofn-File-Icon-v.1.0.0" transform="translate(-533.000000, -1216.000000)">
            <g id="ic_gif" transform="translate(529.000000, 1216.000000)">
                <g>
                    <rect id="base" x="0" y="0" width="100" height="100"></rect>
                    <path d="M20.3636364,-3.05872748e-14 L56.6515732,-3.87568765e-15 L94.9090909,41.8515744 L94.9090909,83.6363636 C94.9090909,92.6737505 87.5828414,100 78.5454545,100 L20.3636364,100 C11.3262495,100 4,92.6737505 4,83.6363636 L4,16.3636364 C4,7.32624955 11.3262495,-3.74197094e-14 20.3636364,-3.90798505e-14 Z" id="Rectangle" fill="#50E3C2"></path>
                    <path d="M94.9371797,41.8181818 L74.9090909,41.8181818 C64.86755,41.8181818 56.7272727,33.6779045 56.7272727,23.6363636 L56.7272727,0.0763881954 L94.9371797,41.8181818 Z" id="Rectangle" fill="#7DF7DC"></path>
                    <path d="M25.12,86.3818182 C22.443623,86.3818182 20.3636438,85.6933402 18.88,84.3163636 C17.3963562,82.9393871 16.6060611,81.0194063 16.5090909,78.5563636 C16.4896969,77.9939366 16.48,77.0921274 16.48,75.8509091 C16.48,74.6096908 16.4896969,73.7078816 16.5090909,73.1454545 C16.5866671,70.740594 17.3818106,68.8545523 18.8945455,67.4872727 C20.4072803,66.1199932 22.4824111,65.4363636 25.12,65.4363636 C26.9042513,65.4363636 28.4412057,65.7418151 29.7309091,66.3527273 C31.0206125,66.9636394 31.9951482,67.7199955 32.6545455,68.6218182 C33.3139427,69.5236409 33.6630301,70.4109047 33.7018182,71.2836364 C33.7018182,71.4581827 33.6436369,71.6036358 33.5272727,71.72 C33.4109085,71.8363642 33.2557585,71.8945455 33.0618182,71.8945455 L30.0072727,71.8945455 C29.8133324,71.8945455 29.6678793,71.855758 29.5709091,71.7781818 C29.4739389,71.7006057 29.3866671,71.5745463 29.3090909,71.4 C29.0375744,70.6824207 28.5624276,70.0715177 27.8836364,69.5672727 C27.2048451,69.0630278 26.2836422,68.8109091 25.12,68.8109091 C23.7624175,68.8109091 22.7006099,69.1745418 21.9345455,69.9018182 C21.168481,70.6290945 20.7660608,71.7587802 20.7272727,73.2909091 C20.7078787,73.8533361 20.6981818,74.7066609 20.6981818,75.8509091 C20.6981818,76.9757632 20.7078787,77.829088 20.7272727,78.4109091 C20.7660608,79.981826 21.1733295,81.1406023 21.9490909,81.8872727 C22.7248524,82.6339431 23.7915084,83.0072727 25.1490909,83.0072727 C26.5260675,83.0072727 27.631511,82.6387916 28.4654545,81.9018182 C29.2993981,81.1648448 29.7163636,80.0594013 29.7163636,78.5854545 L29.7163636,77.6836364 L26.1672727,77.6836364 C25.9733324,77.6836364 25.8084855,77.6157583 25.6727273,77.48 C25.536969,77.3442417 25.4690909,77.1793949 25.4690909,76.9854545 L25.4690909,75.3854545 C25.4690909,75.1915142 25.536969,75.0266673 25.6727273,74.8909091 C25.8084855,74.7551508 25.9733324,74.6872727 26.1672727,74.6872727 L33.1490909,74.6872727 C33.3624253,74.6872727 33.536969,74.7551508 33.6727273,74.8909091 C33.8084855,75.0266673 33.8763636,75.1915142 33.8763636,75.3854545 L33.8763636,78.4690909 C33.8763636,80.0787959 33.5175793,81.479994 32.8,82.6727273 C32.0824207,83.8654605 31.064249,84.781815 29.7454545,85.4218182 C28.4266601,86.0618214 26.8848573,86.3818182 25.12,86.3818182 Z M36.8145454,86.0909091 C36.6206051,86.0909091 36.4557582,86.023031 36.32,85.8872727 C36.1842417,85.7515145 36.1163636,85.5866676 36.1163636,85.3927273 L36.1163636,66.4254545 C36.1163636,66.2121201 36.1842417,66.0424249 36.32,65.9163636 C36.4557582,65.7903024 36.6206051,65.7272727 36.8145454,65.7272727 L39.6072727,65.7272727 C39.8206071,65.7272727 39.9903024,65.7903024 40.1163636,65.9163636 C40.2424249,66.0424249 40.3054545,66.2121201 40.3054545,66.4254545 L40.3054545,85.3927273 C40.3054545,85.5866676 40.2424249,85.7515145 40.1163636,85.8872727 C39.9903024,86.023031 39.8206071,86.0909091 39.6072727,86.0909091 L36.8145454,86.0909091 Z M44.0872727,86.0909091 C43.8933323,86.0909091 43.7284855,86.023031 43.5927272,85.8872727 C43.456969,85.7515145 43.3890909,85.5866676 43.3890909,85.3927273 L43.3890909,66.4545455 C43.3890909,66.2412111 43.4521205,66.0666673 43.5781818,65.9309091 C43.704243,65.7951508 43.8739383,65.7272727 44.0872727,65.7272727 L56.7418181,65.7272727 C56.9551525,65.7272727 57.1296962,65.7951508 57.2654545,65.9309091 C57.4012128,66.0666673 57.4690909,66.2412111 57.4690909,66.4545455 L57.4690909,68.5490909 C57.4690909,68.7430313 57.4012128,68.9078781 57.2654545,69.0436364 C57.1296962,69.1793946 56.9551525,69.2472727 56.7418181,69.2472727 L47.4327272,69.2472727 L47.4327272,74.7163636 L56.16,74.7163636 C56.3733344,74.7163636 56.5478781,74.7842417 56.6836363,74.92 C56.8193946,75.0557583 56.8872727,75.2206051 56.8872727,75.4145455 L56.8872727,77.5090909 C56.8872727,77.7030313 56.8193946,77.8678781 56.6836363,78.0036364 C56.5478781,78.1393946 56.3733344,78.2072727 56.16,78.2072727 L47.4327272,78.2072727 L47.4327272,85.3927273 C47.4327272,85.5866676 47.3648491,85.7515145 47.2290909,85.8872727 C47.0933326,86.023031 46.9187889,86.0909091 46.7054545,86.0909091 L44.0872727,86.0909091 Z" id="GIF" fill="#FFFFFF"></path>
                </g>
            </g>
        </g>
    </g>
</svg>