<?xml version="1.0" encoding="UTF-8"?>
<svg width="91px" height="100px" viewBox="0 0 91 100" version="1.1" xmlns="http://www.w3.org/2000/svg" xmlns:xlink="http://www.w3.org/1999/xlink">
    <!-- Generator: Sketch 51.2 (57519) - http://www.bohemiancoding.com/sketch -->
    <title>ic_pdf</title>
    <desc>Created with Sketch.</desc>
    <defs></defs>
    <g id="Icon-set" stroke="none" stroke-width="1" fill="none" fill-rule="evenodd">
        <g id="Proofn-File-Icon-v.1.0.0" transform="translate(-197.000000, -694.000000)">
            <g id="ic_pdf" transform="translate(193.000000, 694.000000)">
                <g>
                    <rect id="base" x="0" y="0" width="100" height="100"></rect>
                    <path d="M20.3636364,-3.05872748e-14 L56.6515732,-3.87568765e-15 L94.9090909,41.8515744 L94.9090909,83.6363636 C94.9090909,92.6737505 87.5828414,100 78.5454545,100 L20.3636364,100 C11.3262495,100 4,92.6737505 4,83.6363636 L4,16.3636364 C4,7.32624955 11.3262495,-3.74197094e-14 20.3636364,-3.90798505e-14 Z" id="Rectangle" fill="#ED5265"></path>
                    <path d="M94.9371797,41.8181818 L74.9090909,41.8181818 C64.86755,41.8181818 56.7272727,33.6779045 56.7272727,23.6363636 L56.7272727,0.0763881954 L94.9371797,41.8181818 Z" id="Rectangle" fill="#FF7384"></path>
                    <path d="M17.8763636,86.0909091 C17.6824233,86.0909091 17.5175764,86.023031 17.3818182,85.8872727 C17.2460599,85.7515145 17.1781818,85.5866676 17.1781818,85.3927273 L17.1781818,66.4545455 C17.1781818,66.2412111 17.2412115,66.0666673 17.3672727,65.9309091 C17.493334,65.7951508 17.6630292,65.7272727 17.8763636,65.7272727 L25.6727273,65.7272727 C28.0194057,65.7272727 29.8618115,66.2799945 31.2,67.3854545 C32.5381885,68.4909146 33.2072727,70.1005955 33.2072727,72.2145455 C33.2072727,74.3091014 32.5381885,75.8945401 31.2,76.9709091 C29.8618115,78.0472781 28.0194057,78.5854545 25.6727273,78.5854545 L21.3963636,78.5854545 L21.3963636,85.3927273 C21.3963636,85.6060617 21.3284855,85.7757569 21.1927273,85.9018182 C21.056969,86.0278794 20.8824253,86.0909091 20.6690909,86.0909091 L17.8763636,86.0909091 Z M25.5272727,75.3272727 C26.6521268,75.3272727 27.5103001,75.0606087 28.1018182,74.5272727 C28.6933363,73.9939367 28.9890909,73.2133385 28.9890909,72.1854545 C28.9890909,71.1769647 28.7030332,70.391518 28.1309091,69.8290909 C27.558785,69.2666639 26.6909149,68.9854545 25.5272727,68.9854545 L21.3381818,68.9854545 L21.3381818,75.3272727 L25.5272727,75.3272727 Z M35.6218182,86.0909091 C35.4278778,86.0909091 35.263031,86.023031 35.1272727,85.8872727 C34.9915145,85.7515145 34.9236363,85.5866676 34.9236363,85.3927273 L34.9236363,66.4545455 C34.9236363,66.2412111 34.986666,66.0666673 35.1127273,65.9309091 C35.2387885,65.7951508 35.4084838,65.7272727 35.6218182,65.7272727 L42.72,65.7272727 C48.4412407,65.7272727 51.3599994,68.3648221 51.4763636,73.64 C51.5151517,74.7648541 51.5345454,75.5212102 51.5345454,75.9090909 C51.5345454,76.2775776 51.5151517,77.0242368 51.4763636,78.1490909 C51.3987875,80.864256 50.6666736,82.8666602 49.28,84.1563636 C47.8933264,85.4460671 45.7551659,86.0909091 42.8654545,86.0909091 L35.6218182,86.0909091 Z M42.72,82.7163636 C44.329705,82.7163636 45.4933297,82.3575793 46.2109091,81.64 C46.9284884,80.9224207 47.3066665,79.7297053 47.3454545,78.0618182 C47.3842426,76.898176 47.4036363,76.1709105 47.4036363,75.88 C47.4036363,75.5696954 47.3842426,74.8521268 47.3454545,73.7272727 C47.3066665,72.1369617 46.9090947,70.9684886 46.1527273,70.2218182 C45.3963598,69.4751478 44.2036445,69.1018182 42.5745454,69.1018182 L39.0254545,69.1018182 L39.0254545,82.7163636 L42.72,82.7163636 Z M54.6181818,86.0909091 C54.4242414,86.0909091 54.2593946,86.023031 54.1236363,85.8872727 C53.9878781,85.7515145 53.92,85.5866676 53.92,85.3927273 L53.92,66.4545455 C53.92,66.2412111 53.9830296,66.0666673 54.1090909,65.9309091 C54.2351521,65.7951508 54.4048474,65.7272727 54.6181818,65.7272727 L67.2727272,65.7272727 C67.4860616,65.7272727 67.6606053,65.7951508 67.7963636,65.9309091 C67.9321218,66.0666673 68,66.2412111 68,66.4545455 L68,68.5490909 C68,68.7430313 67.9321218,68.9078781 67.7963636,69.0436364 C67.6606053,69.1793946 67.4860616,69.2472727 67.2727272,69.2472727 L57.9636363,69.2472727 L57.9636363,74.7163636 L66.690909,74.7163636 C66.9042434,74.7163636 67.0787872,74.7842417 67.2145454,74.92 C67.3503037,75.0557583 67.4181818,75.2206051 67.4181818,75.4145455 L67.4181818,77.5090909 C67.4181818,77.7030313 67.3503037,77.8678781 67.2145454,78.0036364 C67.0787872,78.1393946 66.9042434,78.2072727 66.690909,78.2072727 L57.9636363,78.2072727 L57.9636363,85.3927273 C57.9636363,85.5866676 57.8957582,85.7515145 57.76,85.8872727 C57.6242417,86.023031 57.449698,86.0909091 57.2363636,86.0909091 L54.6181818,86.0909091 Z" id="PDF" fill="#FFFFFF"></path>
                </g>
            </g>
        </g>
    </g>
</svg>