<?xml version="1.0" encoding="UTF-8"?>
<svg width="91px" height="100px" viewBox="0 0 91 100" version="1.1" xmlns="http://www.w3.org/2000/svg" xmlns:xlink="http://www.w3.org/1999/xlink">
    <!-- Generator: Sketch 51.2 (57519) - http://www.bohemiancoding.com/sketch -->
    <title>ic_ppt</title>
    <desc>Created with Sketch.</desc>
    <defs></defs>
    <g id="Icon-set" stroke="none" stroke-width="1" fill="none" fill-rule="evenodd">
        <g id="Proofn-File-Icon-v.1.0.0" transform="translate(-421.000000, -694.000000)">
            <g id="ic_ppt" transform="translate(417.000000, 694.000000)">
                <g>
                    <rect id="base" x="0" y="0" width="100" height="100"></rect>
                    <path d="M20.3636364,-3.05872748e-14 L56.6515732,-3.87568765e-15 L94.9090909,41.8515744 L94.9090909,83.6363636 C94.9090909,92.6737505 87.5828414,100 78.5454545,100 L20.3636364,100 C11.3262495,100 4,92.6737505 4,83.6363636 L4,16.3636364 C4,7.32624955 11.3262495,-3.74197094e-14 20.3636364,-3.90798505e-14 Z" id="Rectangle" fill="#FD782E"></path>
                    <path d="M94.9371797,41.8181818 L74.9090909,41.8181818 C64.86755,41.8181818 56.7272727,33.6779045 56.7272727,23.6363636 L56.7272727,0.0763881954 L94.9371797,41.8181818 Z" id="Rectangle" fill="#FF9D66"></path>
                    <path d="M17.8763636,86.0909091 C17.6824233,86.0909091 17.5175764,86.023031 17.3818182,85.8872727 C17.2460599,85.7515145 17.1781818,85.5866676 17.1781818,85.3927273 L17.1781818,66.4545455 C17.1781818,66.2412111 17.2412115,66.0666673 17.3672727,65.9309091 C17.493334,65.7951508 17.6630292,65.7272727 17.8763636,65.7272727 L25.6727273,65.7272727 C28.0194057,65.7272727 29.8618115,66.2799945 31.2,67.3854545 C32.5381885,68.4909146 33.2072727,70.1005955 33.2072727,72.2145455 C33.2072727,74.3091014 32.5381885,75.8945401 31.2,76.9709091 C29.8618115,78.0472781 28.0194057,78.5854545 25.6727273,78.5854545 L21.3963636,78.5854545 L21.3963636,85.3927273 C21.3963636,85.6060617 21.3284855,85.7757569 21.1927273,85.9018182 C21.056969,86.0278794 20.8824253,86.0909091 20.6690909,86.0909091 L17.8763636,86.0909091 Z M25.5272727,75.3272727 C26.6521268,75.3272727 27.5103001,75.0606087 28.1018182,74.5272727 C28.6933363,73.9939367 28.9890909,73.2133385 28.9890909,72.1854545 C28.9890909,71.1769647 28.7030332,70.391518 28.1309091,69.8290909 C27.558785,69.2666639 26.6909149,68.9854545 25.5272727,68.9854545 L21.3381818,68.9854545 L21.3381818,75.3272727 L25.5272727,75.3272727 Z M35.6218182,86.0909091 C35.4278778,86.0909091 35.263031,86.023031 35.1272727,85.8872727 C34.9915145,85.7515145 34.9236363,85.5866676 34.9236363,85.3927273 L34.9236363,66.4545455 C34.9236363,66.2412111 34.986666,66.0666673 35.1127273,65.9309091 C35.2387885,65.7951508 35.4084838,65.7272727 35.6218182,65.7272727 L43.4181818,65.7272727 C45.7648602,65.7272727 47.607266,66.2799945 48.9454545,67.3854545 C50.283643,68.4909146 50.9527273,70.1005955 50.9527273,72.2145455 C50.9527273,74.3091014 50.283643,75.8945401 48.9454545,76.9709091 C47.607266,78.0472781 45.7648602,78.5854545 43.4181818,78.5854545 L39.1418182,78.5854545 L39.1418182,85.3927273 C39.1418182,85.6060617 39.0739401,85.7757569 38.9381818,85.9018182 C38.8024235,86.0278794 38.6278798,86.0909091 38.4145454,86.0909091 L35.6218182,86.0909091 Z M43.2727273,75.3272727 C44.3975814,75.3272727 45.2557546,75.0606087 45.8472727,74.5272727 C46.4387908,73.9939367 46.7345454,73.2133385 46.7345454,72.1854545 C46.7345454,71.1769647 46.4484877,70.391518 45.8763636,69.8290909 C45.3042395,69.2666639 44.4363694,68.9854545 43.2727273,68.9854545 L39.0836363,68.9854545 L39.0836363,75.3272727 L43.2727273,75.3272727 Z M57.8472727,86.0909091 C57.6533323,86.0909091 57.4884855,86.023031 57.3527272,85.8872727 C57.216969,85.7515145 57.1490909,85.5866676 57.1490909,85.3927273 L57.1490909,69.3636364 L51.7672727,69.3636364 C51.5733323,69.3636364 51.4084855,69.2957583 51.2727272,69.16 C51.136969,69.0242417 51.0690909,68.849698 51.0690909,68.6363636 L51.0690909,66.4545455 C51.0690909,66.2412111 51.1321205,66.0666673 51.2581818,65.9309091 C51.384243,65.7951508 51.5539383,65.7272727 51.7672727,65.7272727 L66.6327272,65.7272727 C66.8460616,65.7272727 67.0206053,65.7951508 67.1563636,65.9309091 C67.2921218,66.0666673 67.36,66.2412111 67.36,66.4545455 L67.36,68.6363636 C67.36,68.849698 67.2921218,69.0242417 67.1563636,69.16 C67.0206053,69.2957583 66.8460616,69.3636364 66.6327272,69.3636364 L61.28,69.3636364 L61.28,85.3927273 C61.28,85.5866676 61.2169703,85.7515145 61.090909,85.8872727 C60.9648478,86.023031 60.7951525,86.0909091 60.5818181,86.0909091 L57.8472727,86.0909091 Z" id="PPT" fill="#FFFFFF"></path>
                </g>
            </g>
        </g>
    </g>
</svg>