<?xml version="1.0" encoding="UTF-8"?>
<svg width="91px" height="100px" viewBox="0 0 91 100" version="1.1" xmlns="http://www.w3.org/2000/svg" xmlns:xlink="http://www.w3.org/1999/xlink">
    <!-- Generator: Sketch 51.2 (57519) - http://www.bohemiancoding.com/sketch -->
    <title>ic_txt</title>
    <desc>Created with Sketch.</desc>
    <defs></defs>
    <g id="Icon-set" stroke="none" stroke-width="1" fill="none" fill-rule="evenodd">
        <g id="Proofn-File-Icon-v.1.0.0" transform="translate(-85.000000, -1738.000000)">
            <g id="ic_txt" transform="translate(81.000000, 1738.000000)">
                <g>
                    <rect id="base" x="0" y="0" width="100" height="100"></rect>
                    <path d="M20.3636364,-3.05872748e-14 L56.6515732,-3.87568765e-15 L94.9090909,41.8515744 L94.9090909,83.6363636 C94.9090909,92.6737505 87.5828414,100 78.5454545,100 L20.3636364,100 C11.3262495,100 4,92.6737505 4,83.6363636 L4,16.3636364 C4,7.32624955 11.3262495,-3.74197094e-14 20.3636364,-3.90798505e-14 Z" id="Rectangle" fill="#9B9B9B"></path>
                    <path d="M94.9371797,41.8181818 L74.9090909,41.8181818 C64.86755,41.8181818 56.7272727,33.6779045 56.7272727,23.6363636 L56.7272727,0.0763881954 L94.9371797,41.8181818 Z" id="Rectangle" fill="#BFBFBF"></path>
                    <path d="M22.3563636,86.0909091 C22.1624233,86.0909091 21.9975764,86.023031 21.8618182,85.8872727 C21.7260599,85.7515145 21.6581818,85.5866676 21.6581818,85.3927273 L21.6581818,69.3636364 L16.2763636,69.3636364 C16.0824233,69.3636364 15.9175764,69.2957583 15.7818182,69.16 C15.6460599,69.0242417 15.5781818,68.849698 15.5781818,68.6363636 L15.5781818,66.4545455 C15.5781818,66.2412111 15.6412115,66.0666673 15.7672727,65.9309091 C15.893334,65.7951508 16.0630292,65.7272727 16.2763636,65.7272727 L31.1418182,65.7272727 C31.3551526,65.7272727 31.5296963,65.7951508 31.6654545,65.9309091 C31.8012128,66.0666673 31.8690909,66.2412111 31.8690909,66.4545455 L31.8690909,68.6363636 C31.8690909,68.849698 31.8012128,69.0242417 31.6654545,69.16 C31.5296963,69.2957583 31.3551526,69.3636364 31.1418182,69.3636364 L25.7890909,69.3636364 L25.7890909,85.3927273 C25.7890909,85.5866676 25.7260612,85.7515145 25.6,85.8872727 C25.4739388,86.023031 25.3042435,86.0909091 25.0909091,86.0909091 L22.3563636,86.0909091 Z M32.1890909,86.0909091 C32.0339386,86.0909091 31.8933339,86.0327279 31.7672727,85.9163636 C31.6412115,85.7999994 31.5781818,85.6545463 31.5781818,85.48 C31.5781818,85.4024239 31.6169693,85.2860614 31.6945454,85.1309091 L38.1818182,75.7054545 L32.1018182,66.6872727 C32.024242,66.5709085 31.9854545,66.454546 31.9854545,66.3381818 C31.9854545,66.1636355 32.0484842,66.0181824 32.1745454,65.9018182 C32.3006067,65.785454 32.4412113,65.7272727 32.5963636,65.7272727 L35.6509091,65.7272727 C36.0000017,65.7272727 36.3006048,65.9115133 36.5527273,66.28 L40.8,72.5054545 L45.0763636,66.28 C45.289698,65.9115133 45.5903011,65.7272727 45.9781818,65.7272727 L48.8581818,65.7272727 C49.0133341,65.7272727 49.1539387,65.785454 49.28,65.9018182 C49.4060612,66.0181824 49.4690909,66.1636355 49.4690909,66.3381818 C49.4690909,66.415758 49.4303034,66.5321204 49.3527273,66.6872727 L43.2727273,75.7054545 L49.7890909,85.1309091 C49.847273,85.2472733 49.8763636,85.3636358 49.8763636,85.48 C49.8763636,85.6545463 49.8181824,85.7999994 49.7018182,85.9163636 C49.5854539,86.0327279 49.4400009,86.0909091 49.2654545,86.0909091 L46.1527273,86.0909091 C45.8036346,86.0909091 45.5030315,85.9163654 45.2509091,85.5672727 L40.6545454,79.0218182 L36.1163636,85.5672727 C35.8642411,85.9163654 35.5636381,86.0909091 35.2145454,86.0909091 L32.1890909,86.0909091 Z M56.3636363,86.0909091 C56.169696,86.0909091 56.0048491,86.023031 55.8690909,85.8872727 C55.7333326,85.7515145 55.6654545,85.5866676 55.6654545,85.3927273 L55.6654545,69.3636364 L50.2836363,69.3636364 C50.089696,69.3636364 49.9248491,69.2957583 49.7890909,69.16 C49.6533326,69.0242417 49.5854545,68.849698 49.5854545,68.6363636 L49.5854545,66.4545455 C49.5854545,66.2412111 49.6484842,66.0666673 49.7745454,65.9309091 C49.9006066,65.7951508 50.0703019,65.7272727 50.2836363,65.7272727 L65.1490909,65.7272727 C65.3624253,65.7272727 65.536969,65.7951508 65.6727272,65.9309091 C65.8084855,66.0666673 65.8763636,66.2412111 65.8763636,66.4545455 L65.8763636,68.6363636 C65.8763636,68.849698 65.8084855,69.0242417 65.6727272,69.16 C65.536969,69.2957583 65.3624253,69.3636364 65.1490909,69.3636364 L59.7963636,69.3636364 L59.7963636,85.3927273 C59.7963636,85.5866676 59.7333339,85.7515145 59.6072727,85.8872727 C59.4812114,86.023031 59.3115162,86.0909091 59.0981818,86.0909091 L56.3636363,86.0909091 Z" id="TXT" fill="#FFFFFF"></path>
                </g>
            </g>
        </g>
    </g>
</svg>