<?xml version="1.0" encoding="UTF-8"?>
<svg width="91px" height="100px" viewBox="0 0 91 100" version="1.1" xmlns="http://www.w3.org/2000/svg" xmlns:xlink="http://www.w3.org/1999/xlink">
    <!-- Generator: Sketch 51.2 (57519) - http://www.bohemiancoding.com/sketch -->
    <title>ic_xls</title>
    <desc>Created with Sketch.</desc>
    <defs></defs>
    <g id="Icon-set" stroke="none" stroke-width="1" fill="none" fill-rule="evenodd">
        <g id="Proofn-File-Icon-v.1.0.0" transform="translate(-309.000000, -694.000000)">
            <g id="ic_xls" transform="translate(305.000000, 694.000000)">
                <g>
                    <rect id="base" x="0" y="0" width="100" height="100"></rect>
                    <path d="M20.3636364,-3.05872748e-14 L56.6515732,-3.87568765e-15 L94.9090909,41.8515744 L94.9090909,83.6363636 C94.9090909,92.6737505 87.5828414,100 78.5454545,100 L20.3636364,100 C11.3262495,100 4,92.6737505 4,83.6363636 L4,16.3636364 C4,7.32624955 11.3262495,-3.74197094e-14 20.3636364,-3.90798505e-14 Z" id="Rectangle" fill="#37CA9A"></path>
                    <path d="M94.9371797,41.8181818 L74.9090909,41.8181818 C64.86755,41.8181818 56.7272727,33.6779045 56.7272727,23.6363636 L56.7272727,0.0763881954 L94.9371797,41.8181818 Z" id="Rectangle" fill="#40E3AE"></path>
                    <path d="M16.0145455,86.0909091 C15.8593932,86.0909091 15.7187885,86.0327279 15.5927273,85.9163636 C15.466666,85.7999994 15.4036364,85.6545463 15.4036364,85.48 C15.4036364,85.4024239 15.4424239,85.2860614 15.52,85.1309091 L22.0072727,75.7054545 L15.9272727,66.6872727 C15.8496966,66.5709085 15.8109091,66.454546 15.8109091,66.3381818 C15.8109091,66.1636355 15.8739388,66.0181824 16,65.9018182 C16.1260612,65.785454 16.2666659,65.7272727 16.4218182,65.7272727 L19.4763636,65.7272727 C19.8254563,65.7272727 20.1260593,65.9115133 20.3781818,66.28 L24.6254545,72.5054545 L28.9018182,66.28 C29.1151526,65.9115133 29.4157556,65.7272727 29.8036364,65.7272727 L32.6836364,65.7272727 C32.8387887,65.7272727 32.9793933,65.785454 33.1054545,65.9018182 C33.2315158,66.0181824 33.2945455,66.1636355 33.2945455,66.3381818 C33.2945455,66.415758 33.255758,66.5321204 33.1781818,66.6872727 L27.0981818,75.7054545 L33.6145455,85.1309091 C33.6727276,85.2472733 33.7018182,85.3636358 33.7018182,85.48 C33.7018182,85.6545463 33.6436369,85.7999994 33.5272727,85.9163636 C33.4109085,86.0327279 33.2654554,86.0909091 33.0909091,86.0909091 L29.9781818,86.0909091 C29.6290892,86.0909091 29.3284861,85.9163654 29.0763636,85.5672727 L24.48,79.0218182 L19.9418182,85.5672727 C19.6896957,85.9163654 19.3890927,86.0909091 19.04,86.0909091 L16.0145455,86.0909091 Z M35.7090909,86.0909091 C35.5151505,86.0909091 35.3503037,86.023031 35.2145454,85.8872727 C35.0787872,85.7515145 35.0109091,85.5866676 35.0109091,85.3927273 L35.0109091,66.4254545 C35.0109091,66.2121201 35.0787872,66.0424249 35.2145454,65.9163636 C35.3503037,65.7903024 35.5151505,65.7272727 35.7090909,65.7272727 L38.4436363,65.7272727 C38.6569707,65.7272727 38.826666,65.7903024 38.9527273,65.9163636 C39.0787885,66.0424249 39.1418182,66.2121201 39.1418182,66.4254545 L39.1418182,82.6 L48.3636363,82.6 C48.5769707,82.6 48.7515145,82.6678781 48.8872727,82.8036364 C49.023031,82.9393946 49.0909091,83.1042415 49.0909091,83.2981818 L49.0909091,85.3927273 C49.0909091,85.5866676 49.023031,85.7515145 48.8872727,85.8872727 C48.7515145,86.023031 48.5769707,86.0909091 48.3636363,86.0909091 L35.7090909,86.0909091 Z M57.5563636,86.3818182 C55.8109003,86.3818182 54.3175819,86.1200026 53.0763636,85.5963636 C51.8351453,85.0727247 50.8945486,84.3842467 50.2545454,83.5309091 C49.6145422,82.6775715 49.2751517,81.7466717 49.2363636,80.7381818 C49.2363636,80.5830295 49.2945448,80.4424249 49.410909,80.3163636 C49.5272733,80.1903024 49.6727264,80.1272727 49.8472727,80.1272727 L52.4945454,80.1272727 C52.7078798,80.1272727 52.8824235,80.1757571 53.0181818,80.2727273 C53.15394,80.3696975 53.2799994,80.5054537 53.3963636,80.68 C53.590304,81.3393972 54.0315117,81.892119 54.72,82.3381818 C55.4084882,82.7842447 56.3539333,83.0072727 57.5563636,83.0072727 C58.9139461,83.0072727 59.9369662,82.7793962 60.6254545,82.3236364 C61.3139428,81.8678765 61.6581818,81.2424282 61.6581818,80.4472727 C61.6581818,79.9236337 61.4836381,79.4872745 61.1345454,79.1381818 C60.7854528,78.7890892 60.2569732,78.4836377 59.5490909,78.2218182 C58.8412085,77.9599987 57.7890978,77.6448503 56.3927272,77.2763636 C54.1042309,76.7333306 52.426672,76.015762 51.36,75.1236364 C50.293328,74.2315107 49.76,72.9515235 49.76,71.2836364 C49.76,70.1587823 50.0702999,69.1551559 50.690909,68.2727273 C51.3115182,67.3902986 52.1987821,66.6969722 53.3527272,66.1927273 C54.5066724,65.6884823 55.8496893,65.4363636 57.3818181,65.4363636 C58.9915232,65.4363636 60.3830244,65.7175729 61.5563636,66.28 C62.7297028,66.8424271 63.6218151,67.5454503 64.2327272,68.3890909 C64.8436394,69.2327315 65.1684846,70.071511 65.2072727,70.9054545 C65.2072727,71.0606068 65.1490914,71.2012115 65.0327272,71.3272727 C64.916363,71.453334 64.7709099,71.5163636 64.5963636,71.5163636 L61.8327272,71.5163636 C61.4060584,71.5163636 61.1151522,71.3418199 60.96,70.9927273 C60.8630298,70.3721181 60.4848517,69.8533354 59.8254545,69.4363636 C59.1660573,69.0193919 58.35152,68.8109091 57.3818181,68.8109091 C56.3151461,68.8109091 55.4763666,69.0145434 54.8654545,69.4218182 C54.2545424,69.8290929 53.9490909,70.4206022 53.9490909,71.1963636 C53.9490909,71.7200026 54.1042408,72.1563619 54.4145454,72.5054545 C54.72485,72.8545472 55.2096936,73.1599987 55.8690909,73.4218182 C56.5284881,73.6836377 57.4884785,73.9793923 58.7490909,74.3090909 C60.4751601,74.6969716 61.8472676,75.1333309 62.8654545,75.6181818 C63.8836414,76.1030327 64.635149,76.7139357 65.12,77.4509091 C65.6048509,78.1878825 65.8472727,79.1284791 65.8472727,80.2727273 C65.8472727,81.5333396 65.5030337,82.6242378 64.8145454,83.5454545 C64.1260571,84.4666713 63.1563698,85.1696945 61.9054545,85.6545455 C60.6545392,86.1393964 59.2048567,86.3818182 57.5563636,86.3818182 Z" id="XLS" fill="#FFFFFF"></path>
                </g>
            </g>
        </g>
    </g>
</svg>